G75*
G70*
%OFA0B0*%
%FSLAX24Y24*%
%IPPOS*%
%LPD*%
%AMOC8*
5,1,8,0,0,1.08239X$1,22.5*
%
%ADD10C,0.0000*%
D10*
X000500Y000500D02*
X000500Y039870D01*
X039870Y039870D01*
X039870Y000500D01*
X000500Y000500D01*
X001839Y002469D02*
X001841Y002519D01*
X001847Y002569D01*
X001857Y002618D01*
X001871Y002666D01*
X001888Y002713D01*
X001909Y002758D01*
X001934Y002802D01*
X001962Y002843D01*
X001994Y002882D01*
X002028Y002919D01*
X002065Y002953D01*
X002105Y002983D01*
X002147Y003010D01*
X002191Y003034D01*
X002237Y003055D01*
X002284Y003071D01*
X002332Y003084D01*
X002382Y003093D01*
X002431Y003098D01*
X002482Y003099D01*
X002532Y003096D01*
X002581Y003089D01*
X002630Y003078D01*
X002678Y003063D01*
X002724Y003045D01*
X002769Y003023D01*
X002812Y002997D01*
X002853Y002968D01*
X002892Y002936D01*
X002928Y002901D01*
X002960Y002863D01*
X002990Y002823D01*
X003017Y002780D01*
X003040Y002736D01*
X003059Y002690D01*
X003075Y002642D01*
X003087Y002593D01*
X003095Y002544D01*
X003099Y002494D01*
X003099Y002444D01*
X003095Y002394D01*
X003087Y002345D01*
X003075Y002296D01*
X003059Y002248D01*
X003040Y002202D01*
X003017Y002158D01*
X002990Y002115D01*
X002960Y002075D01*
X002928Y002037D01*
X002892Y002002D01*
X002853Y001970D01*
X002812Y001941D01*
X002769Y001915D01*
X002724Y001893D01*
X002678Y001875D01*
X002630Y001860D01*
X002581Y001849D01*
X002532Y001842D01*
X002482Y001839D01*
X002431Y001840D01*
X002382Y001845D01*
X002332Y001854D01*
X002284Y001867D01*
X002237Y001883D01*
X002191Y001904D01*
X002147Y001928D01*
X002105Y001955D01*
X002065Y001985D01*
X002028Y002019D01*
X001994Y002056D01*
X001962Y002095D01*
X001934Y002136D01*
X001909Y002180D01*
X001888Y002225D01*
X001871Y002272D01*
X001857Y002320D01*
X001847Y002369D01*
X001841Y002419D01*
X001839Y002469D01*
X001681Y020776D02*
X001683Y020815D01*
X001689Y020854D01*
X001699Y020892D01*
X001712Y020929D01*
X001729Y020964D01*
X001749Y020998D01*
X001773Y021029D01*
X001800Y021058D01*
X001829Y021084D01*
X001861Y021107D01*
X001895Y021127D01*
X001931Y021143D01*
X001968Y021155D01*
X002007Y021164D01*
X002046Y021169D01*
X002085Y021170D01*
X002124Y021167D01*
X002163Y021160D01*
X002200Y021149D01*
X002237Y021135D01*
X002272Y021117D01*
X002305Y021096D01*
X002336Y021071D01*
X002364Y021044D01*
X002389Y021014D01*
X002411Y020981D01*
X002430Y020947D01*
X002445Y020911D01*
X002457Y020873D01*
X002465Y020835D01*
X002469Y020796D01*
X002469Y020756D01*
X002465Y020717D01*
X002457Y020679D01*
X002445Y020641D01*
X002430Y020605D01*
X002411Y020571D01*
X002389Y020538D01*
X002364Y020508D01*
X002336Y020481D01*
X002305Y020456D01*
X002272Y020435D01*
X002237Y020417D01*
X002200Y020403D01*
X002163Y020392D01*
X002124Y020385D01*
X002085Y020382D01*
X002046Y020383D01*
X002007Y020388D01*
X001968Y020397D01*
X001931Y020409D01*
X001895Y020425D01*
X001861Y020445D01*
X001829Y020468D01*
X001800Y020494D01*
X001773Y020523D01*
X001749Y020554D01*
X001729Y020588D01*
X001712Y020623D01*
X001699Y020660D01*
X001689Y020698D01*
X001683Y020737D01*
X001681Y020776D01*
X010736Y020776D02*
X010738Y020815D01*
X010744Y020854D01*
X010754Y020892D01*
X010767Y020929D01*
X010784Y020964D01*
X010804Y020998D01*
X010828Y021029D01*
X010855Y021058D01*
X010884Y021084D01*
X010916Y021107D01*
X010950Y021127D01*
X010986Y021143D01*
X011023Y021155D01*
X011062Y021164D01*
X011101Y021169D01*
X011140Y021170D01*
X011179Y021167D01*
X011218Y021160D01*
X011255Y021149D01*
X011292Y021135D01*
X011327Y021117D01*
X011360Y021096D01*
X011391Y021071D01*
X011419Y021044D01*
X011444Y021014D01*
X011466Y020981D01*
X011485Y020947D01*
X011500Y020911D01*
X011512Y020873D01*
X011520Y020835D01*
X011524Y020796D01*
X011524Y020756D01*
X011520Y020717D01*
X011512Y020679D01*
X011500Y020641D01*
X011485Y020605D01*
X011466Y020571D01*
X011444Y020538D01*
X011419Y020508D01*
X011391Y020481D01*
X011360Y020456D01*
X011327Y020435D01*
X011292Y020417D01*
X011255Y020403D01*
X011218Y020392D01*
X011179Y020385D01*
X011140Y020382D01*
X011101Y020383D01*
X011062Y020388D01*
X011023Y020397D01*
X010986Y020409D01*
X010950Y020425D01*
X010916Y020445D01*
X010884Y020468D01*
X010855Y020494D01*
X010828Y020523D01*
X010804Y020554D01*
X010784Y020588D01*
X010767Y020623D01*
X010754Y020660D01*
X010744Y020698D01*
X010738Y020737D01*
X010736Y020776D01*
X010736Y030224D02*
X010738Y030263D01*
X010744Y030302D01*
X010754Y030340D01*
X010767Y030377D01*
X010784Y030412D01*
X010804Y030446D01*
X010828Y030477D01*
X010855Y030506D01*
X010884Y030532D01*
X010916Y030555D01*
X010950Y030575D01*
X010986Y030591D01*
X011023Y030603D01*
X011062Y030612D01*
X011101Y030617D01*
X011140Y030618D01*
X011179Y030615D01*
X011218Y030608D01*
X011255Y030597D01*
X011292Y030583D01*
X011327Y030565D01*
X011360Y030544D01*
X011391Y030519D01*
X011419Y030492D01*
X011444Y030462D01*
X011466Y030429D01*
X011485Y030395D01*
X011500Y030359D01*
X011512Y030321D01*
X011520Y030283D01*
X011524Y030244D01*
X011524Y030204D01*
X011520Y030165D01*
X011512Y030127D01*
X011500Y030089D01*
X011485Y030053D01*
X011466Y030019D01*
X011444Y029986D01*
X011419Y029956D01*
X011391Y029929D01*
X011360Y029904D01*
X011327Y029883D01*
X011292Y029865D01*
X011255Y029851D01*
X011218Y029840D01*
X011179Y029833D01*
X011140Y029830D01*
X011101Y029831D01*
X011062Y029836D01*
X011023Y029845D01*
X010986Y029857D01*
X010950Y029873D01*
X010916Y029893D01*
X010884Y029916D01*
X010855Y029942D01*
X010828Y029971D01*
X010804Y030002D01*
X010784Y030036D01*
X010767Y030071D01*
X010754Y030108D01*
X010744Y030146D01*
X010738Y030185D01*
X010736Y030224D01*
X001839Y037902D02*
X001841Y037952D01*
X001847Y038002D01*
X001857Y038051D01*
X001871Y038099D01*
X001888Y038146D01*
X001909Y038191D01*
X001934Y038235D01*
X001962Y038276D01*
X001994Y038315D01*
X002028Y038352D01*
X002065Y038386D01*
X002105Y038416D01*
X002147Y038443D01*
X002191Y038467D01*
X002237Y038488D01*
X002284Y038504D01*
X002332Y038517D01*
X002382Y038526D01*
X002431Y038531D01*
X002482Y038532D01*
X002532Y038529D01*
X002581Y038522D01*
X002630Y038511D01*
X002678Y038496D01*
X002724Y038478D01*
X002769Y038456D01*
X002812Y038430D01*
X002853Y038401D01*
X002892Y038369D01*
X002928Y038334D01*
X002960Y038296D01*
X002990Y038256D01*
X003017Y038213D01*
X003040Y038169D01*
X003059Y038123D01*
X003075Y038075D01*
X003087Y038026D01*
X003095Y037977D01*
X003099Y037927D01*
X003099Y037877D01*
X003095Y037827D01*
X003087Y037778D01*
X003075Y037729D01*
X003059Y037681D01*
X003040Y037635D01*
X003017Y037591D01*
X002990Y037548D01*
X002960Y037508D01*
X002928Y037470D01*
X002892Y037435D01*
X002853Y037403D01*
X002812Y037374D01*
X002769Y037348D01*
X002724Y037326D01*
X002678Y037308D01*
X002630Y037293D01*
X002581Y037282D01*
X002532Y037275D01*
X002482Y037272D01*
X002431Y037273D01*
X002382Y037278D01*
X002332Y037287D01*
X002284Y037300D01*
X002237Y037316D01*
X002191Y037337D01*
X002147Y037361D01*
X002105Y037388D01*
X002065Y037418D01*
X002028Y037452D01*
X001994Y037489D01*
X001962Y037528D01*
X001934Y037569D01*
X001909Y037613D01*
X001888Y037658D01*
X001871Y037705D01*
X001857Y037753D01*
X001847Y037802D01*
X001841Y037852D01*
X001839Y037902D01*
X001681Y030224D02*
X001683Y030263D01*
X001689Y030302D01*
X001699Y030340D01*
X001712Y030377D01*
X001729Y030412D01*
X001749Y030446D01*
X001773Y030477D01*
X001800Y030506D01*
X001829Y030532D01*
X001861Y030555D01*
X001895Y030575D01*
X001931Y030591D01*
X001968Y030603D01*
X002007Y030612D01*
X002046Y030617D01*
X002085Y030618D01*
X002124Y030615D01*
X002163Y030608D01*
X002200Y030597D01*
X002237Y030583D01*
X002272Y030565D01*
X002305Y030544D01*
X002336Y030519D01*
X002364Y030492D01*
X002389Y030462D01*
X002411Y030429D01*
X002430Y030395D01*
X002445Y030359D01*
X002457Y030321D01*
X002465Y030283D01*
X002469Y030244D01*
X002469Y030204D01*
X002465Y030165D01*
X002457Y030127D01*
X002445Y030089D01*
X002430Y030053D01*
X002411Y030019D01*
X002389Y029986D01*
X002364Y029956D01*
X002336Y029929D01*
X002305Y029904D01*
X002272Y029883D01*
X002237Y029865D01*
X002200Y029851D01*
X002163Y029840D01*
X002124Y029833D01*
X002085Y029830D01*
X002046Y029831D01*
X002007Y029836D01*
X001968Y029845D01*
X001931Y029857D01*
X001895Y029873D01*
X001861Y029893D01*
X001829Y029916D01*
X001800Y029942D01*
X001773Y029971D01*
X001749Y030002D01*
X001729Y030036D01*
X001712Y030071D01*
X001699Y030108D01*
X001689Y030146D01*
X001683Y030185D01*
X001681Y030224D01*
X037272Y037902D02*
X037274Y037952D01*
X037280Y038002D01*
X037290Y038051D01*
X037304Y038099D01*
X037321Y038146D01*
X037342Y038191D01*
X037367Y038235D01*
X037395Y038276D01*
X037427Y038315D01*
X037461Y038352D01*
X037498Y038386D01*
X037538Y038416D01*
X037580Y038443D01*
X037624Y038467D01*
X037670Y038488D01*
X037717Y038504D01*
X037765Y038517D01*
X037815Y038526D01*
X037864Y038531D01*
X037915Y038532D01*
X037965Y038529D01*
X038014Y038522D01*
X038063Y038511D01*
X038111Y038496D01*
X038157Y038478D01*
X038202Y038456D01*
X038245Y038430D01*
X038286Y038401D01*
X038325Y038369D01*
X038361Y038334D01*
X038393Y038296D01*
X038423Y038256D01*
X038450Y038213D01*
X038473Y038169D01*
X038492Y038123D01*
X038508Y038075D01*
X038520Y038026D01*
X038528Y037977D01*
X038532Y037927D01*
X038532Y037877D01*
X038528Y037827D01*
X038520Y037778D01*
X038508Y037729D01*
X038492Y037681D01*
X038473Y037635D01*
X038450Y037591D01*
X038423Y037548D01*
X038393Y037508D01*
X038361Y037470D01*
X038325Y037435D01*
X038286Y037403D01*
X038245Y037374D01*
X038202Y037348D01*
X038157Y037326D01*
X038111Y037308D01*
X038063Y037293D01*
X038014Y037282D01*
X037965Y037275D01*
X037915Y037272D01*
X037864Y037273D01*
X037815Y037278D01*
X037765Y037287D01*
X037717Y037300D01*
X037670Y037316D01*
X037624Y037337D01*
X037580Y037361D01*
X037538Y037388D01*
X037498Y037418D01*
X037461Y037452D01*
X037427Y037489D01*
X037395Y037528D01*
X037367Y037569D01*
X037342Y037613D01*
X037321Y037658D01*
X037304Y037705D01*
X037290Y037753D01*
X037280Y037802D01*
X037274Y037852D01*
X037272Y037902D01*
X037272Y002469D02*
X037274Y002519D01*
X037280Y002569D01*
X037290Y002618D01*
X037304Y002666D01*
X037321Y002713D01*
X037342Y002758D01*
X037367Y002802D01*
X037395Y002843D01*
X037427Y002882D01*
X037461Y002919D01*
X037498Y002953D01*
X037538Y002983D01*
X037580Y003010D01*
X037624Y003034D01*
X037670Y003055D01*
X037717Y003071D01*
X037765Y003084D01*
X037815Y003093D01*
X037864Y003098D01*
X037915Y003099D01*
X037965Y003096D01*
X038014Y003089D01*
X038063Y003078D01*
X038111Y003063D01*
X038157Y003045D01*
X038202Y003023D01*
X038245Y002997D01*
X038286Y002968D01*
X038325Y002936D01*
X038361Y002901D01*
X038393Y002863D01*
X038423Y002823D01*
X038450Y002780D01*
X038473Y002736D01*
X038492Y002690D01*
X038508Y002642D01*
X038520Y002593D01*
X038528Y002544D01*
X038532Y002494D01*
X038532Y002444D01*
X038528Y002394D01*
X038520Y002345D01*
X038508Y002296D01*
X038492Y002248D01*
X038473Y002202D01*
X038450Y002158D01*
X038423Y002115D01*
X038393Y002075D01*
X038361Y002037D01*
X038325Y002002D01*
X038286Y001970D01*
X038245Y001941D01*
X038202Y001915D01*
X038157Y001893D01*
X038111Y001875D01*
X038063Y001860D01*
X038014Y001849D01*
X037965Y001842D01*
X037915Y001839D01*
X037864Y001840D01*
X037815Y001845D01*
X037765Y001854D01*
X037717Y001867D01*
X037670Y001883D01*
X037624Y001904D01*
X037580Y001928D01*
X037538Y001955D01*
X037498Y001985D01*
X037461Y002019D01*
X037427Y002056D01*
X037395Y002095D01*
X037367Y002136D01*
X037342Y002180D01*
X037321Y002225D01*
X037304Y002272D01*
X037290Y002320D01*
X037280Y002369D01*
X037274Y002419D01*
X037272Y002469D01*
M02*
